PathFileType	4	(X/Y/Z)	C:/Users/beibeiliu/ov580/test_trc\sequence.18_training_dense_left.trc
DataRate	CameraRate	NumFrames	NumMarkers	Units	OrigDataRate	OrigDataStartFrame	OrigNumFrames
120	120	20	19	mm	120	1	48
Frame#	Time	ThumbCMC			ThumbMCP			ThumbIP			ThumbTip			IndexMCP			IndexPIP			IndexTip			MiddleMCP			MiddlePIP			MiddleTip			RingMCP			RingPIP			RingTip			PinkyMCP			PinkyPIP			PinkyTip			BackHand1			BackHand2			BackHand3	
		X0	Y0	Z0	X1	Y1	Z1	X2	Y2	Z2	X3	Y3	Z3	X4	Y4	Z4	X5	Y5	Z5	X6	Y6	Z6	X7	Y7	Z7	X8	Y8	Z8	X9	Y9	Z9	X10	Y10	Z10	X11	Y11	Z11	X12	Y12	Z12	X13	Y13	Z13	X14	Y14	Z14	X15	Y15	Z15	X16	Y16	Z16	X17	Y17	Z17	X18	Y18	Z18	
0	0	-190.262	51.8673	128.02	-163.949	74.4521	116.757	-141.361	83.0119	97.7814	-116.832	66.7629	83.9027	-169.937	44.3806	57.0589	-161.863	57.552	37.8422	-150.591	66.9309	11.9093	-147.68	27.7525	54.7092	-129.243	35.2815	35.5291	-107.628	45.6209	18.0928	-125.898	35.0781	73.2749	-112.473	56.4045	86.9741	-126.998	60.6051	117.862	-114.021	21.6509	88.8073	-108.83	43.88	103.253	-133.969	49.7692	123.866	-161.672	-3.42268	98.8367	-176.584	-11.6181	131.354	-191.734	13.1264	109.123	
1	0.00833333	-200.439	37.5718	123.474	-179.802	61.1973	106.885	-160.383	64.0311	87.6397	-137.145	53.8525	72.0505	-188.75	23.3126	52.3246	-182.897	33.464	27.8853	-175.213	39.7459	3.25018	-165.377	9.26222	48.4952	-152.644	14.2427	30.7019	-132.262	22.6922	7.48207	-140.089	15.8168	66.5682	-131.177	43.8701	74.7673	-145.758	50.1327	109.416	-131.954	7.22996	82.4376	-125.88	37.2221	95.5693	-145.499	40.92	117.448	-170.987	-18.4963	103.731	-183.611	-22.4836	131.168	-202.188	-0.651207	109.631	
2	0.0166667	-212.662	26.932	122.761	-195.121	47.868	102.473	-176.512	52.523	74.169	-159.714	41.5946	63.2855	-213.187	7.14718	47.7768	-207.398	10.299	27.0478	-206.649	15.5246	2.47698	-185.682	-12.2287	50.0115	-175.341	-7.90168	25.4123	-162.646	-1.78093	0.16291	-164.419	0.690216	60.2842	-150.767	31.8012	66.4694	-159.941	38.6666	97.6836	-146.846	-5.91133	73.9881	-141.089	23.8659	82.7584	-159.876	29.739	105.568	-183.375	-31.1877	103.906	-192.332	-29.5914	133.338	-213.78	-13.7003	114.926	
3	0.025	-221.404	27.5868	116.702	-201.714	42.1115	95.83	-187.367	44.0654	70.4757	-172.069	33.9885	55.9268	-226.575	-1.39985	49.8747	-228.511	3.72897	24.6628	-222.09	1.28461	4.24849	-204.463	-19.2511	51.5512	-193.6	-19.7322	23.2046	-181.887	-18.4493	-1.6106	-178.782	-6.6753	55.7968	-162.975	21.1024	59.1792	-169.295	33.1863	86.0272	-165.795	-14.4417	71.498	-155.998	15.2887	71.8147	-168.42	26.3161	99.4805	-196.421	-33.3519	102.658	-198.994	-33.3459	134.716	-225.4	-14.8131	114.594	
4	0.0333333	-220.007	29.625	121.351	-201.413	42.8981	91.8419	-189.244	44.1704	67.2006	-175.397	27.6661	49.5517	-238.463	3.09876	55.963	-238.031	4.52658	32.3133	-238.507	4.43332	7.33554	-218.497	-19.9832	48.2469	-209.776	-21.1318	22.6329	-201.843	-24.0356	0.794062	-185.646	-12.8623	57.6145	-170.872	16.9566	56.7782	-173.98	27.5624	88.0304	-170.681	-19.1548	69.7167	-163.842	8.05569	68.7369	-172.282	22.7038	97.5104	-207.452	-33.3876	106.234	-211.802	-26.4487	135.716	-231.119	-8.79223	117.918	
5	0.0416667	-213.585	40.8028	119.313	-193.39	48.8777	94	-182.836	43.1556	66.0309	-173.627	26.7829	48.9326	-240.566	21.8926	60.0387	-238.664	20.7384	31.025	-240.974	22.8361	10.2648	-224.989	-8.52042	52.133	-222.305	-9.77856	27.3872	-214.21	-16.0898	1.63859	-193.821	-8.40662	57.8707	-170.357	14.9318	57.4731	-169.598	25.9658	86.2051	-182.778	-16.805	69.135	-166.518	5.65183	68.1104	-170.748	19.7842	97.9646	-219.06	-19.5824	110.983	-216.431	-16.726	139.479	-235.358	9.73339	121.852	
6	0.05	-197.808	53.9667	122.89	-175.331	54.6716	95.3369	-167.719	46.2719	72.8493	-168.179	28.2325	53.0417	-230.71	44.6011	58.0161	-229.424	51.4093	38.9402	-230.674	50.2834	13.5054	-228.636	14.0872	53.1902	-227.616	15.1918	30.8973	-224.735	9.61165	0.0102544	-202.283	6.77971	59.3774	-171.514	15.6467	55.7857	-166.978	28.2562	89.4807	-189.762	-11.2494	68.0537	-165.223	7.64653	72.453	-168.323	18.9608	100.421	-223.648	-0.489593	111.365	-220.964	-3.67224	141.332	-230.546	27.0147	125.992	
7	0.0583333	-176.142	57.0138	131.134	-154.899	51.8385	101.51	-151.195	45.5202	69.9545	-157.944	29.5496	50.944	-209.77	68.5971	63.1931	-204.991	76.5202	38.4786	-206.841	75.9928	17.1579	-219.877	41.2169	54.6915	-218.869	40.8925	31.1669	-216.714	41.6623	-1.99771	-197.987	21.6659	57.8004	-166.307	15.1416	56.635	-158.89	20.7341	87.9279	-192.997	0.181216	63.879	-166.33	5.63791	69.5397	-166.598	17.2596	102.614	-223.413	13.7539	110.118	-221.121	12.7005	138.354	-217.374	48.6421	127.273	
8	0.0666667	-152.011	48.9026	132.356	-135.634	37.6047	103.705	-135.21	31.5588	77.5101	-149.62	20.7531	54.8584	-173.847	76.7082	69.6829	-166.17	83.3905	42.2266	-160.876	89.2523	18.5054	-194.596	58.0231	60.5766	-194.904	56.4974	29.7375	-190.866	57.0326	2.63533	-183.416	27.4691	57.7221	-157.512	10.218	58.5948	-150.075	14.521	92.7795	-192.252	8.05927	67.4153	-163.196	0.699357	71.0232	-159.666	9.0124	104.598	-210.097	34.0755	109.192	-211.66	27.3173	141.356	-191.413	56.6089	129.999	
9	0.075	-131.835	33.9092	141.086	-112.917	16.8	112.684	-111.706	10.1574	86.654	-131.271	4.60486	67.2833	-131.652	64.7664	73.7221	-124.976	65.2141	51.8075	-117.09	68.6657	26.5956	-157.901	56.5443	61.551	-154.693	55.084	35.769	-151.424	50.2531	8.07408	-158.205	24.1622	62.4163	-146.045	-4.14636	65.0999	-140.399	-3.11445	100	-175.377	12.7107	73.8378	-154.502	-10.0576	82.1204	-151.526	-0.169313	111.353	-189.648	41.9776	111.266	-192.893	40.5384	139.469	-161.552	57.3576	134.218	
10	0.0833333	-113.697	21.2273	148.462	-100.626	-1.1309	126.228	-99.1979	-10.9498	98.7686	-114.805	-14.8816	75.1256	-103.892	39.8047	78.2016	-90.6679	37.0152	59.4561	-82.5123	34.9869	32.7944	-129.002	35.7182	63.632	-123.707	29.3793	41.8836	-121.838	19.6937	14.2611	-142.971	4.2176	70.657	-131.3	-23.5396	77.7408	-128.328	-20.2784	113.97	-156.61	-0.366486	80.7718	-142.429	-25.1257	94.3579	-141.026	-11.9235	122.709	-167.089	37.1478	112.571	-172.216	39.1784	139.223	-140.348	48.7958	135.04	
11	0.0916667	-109.26	16.5724	157.835	-87.1465	-7.69557	140.805	-81.3206	-20.2978	115.182	-95.2112	-27.0553	92.3643	-86.2658	24.7818	85.421	-71.6578	17.6293	66.5865	-64.1968	12.2761	47.0086	-110.852	16.579	72.0357	-103.469	4.48869	47.7555	-93.9767	-9.32832	22.6488	-124.614	-9.95814	79.9281	-110.347	-36.0168	89.5057	-113.441	-35.1619	123.524	-134.897	-19.5776	88.2347	-125.186	-36.5648	105.793	-128.082	-19.1733	136.159	-153.363	26.4876	110.566	-165.368	32.2905	138.591	-126.612	40.4907	135.669	
12	0.1	-108.736	30.8086	153.701	-86.5752	7.53382	145.273	-67.853	-6.77119	127.163	-70.4564	-20.7326	102.984	-85.5765	35.6732	84.9964	-68.0107	30.2127	69.7484	-56.9659	20.967	52.6153	-103.938	19.7092	72.2743	-91.2528	5.3126	51.0327	-78.4327	-8.84434	33.7795	-112.897	-9.39719	81.2836	-88.1399	-27.3009	94.0575	-89.5722	-27.2168	126.595	-125.152	-21.7367	94.1275	-106.01	-33.2128	112.731	-109.326	-12.8115	141.943	-147.68	21.0784	110.502	-166.127	27.2438	138.821	-135.68	44.2753	133.699	
13	0.108333	-115.926	43.9621	155.289	-82.4203	27.7095	146.873	-62.3785	16.1242	130.019	-58.0732	-2.10576	109.992	-100.402	44.8089	82.6657	-80.5178	44.2029	66.3786	-57.9875	35.3487	49.3775	-109.57	25.5224	68.7002	-90.6079	17.505	50.4359	-70.7751	6.73048	36.3712	-107.683	1.3	77.9827	-81.7316	-10.3183	80.9568	-67.7187	-10.8123	111.213	-108.743	-14.6962	95.3629	-88.8104	-18.1143	117.722	-95.7394	-0.0987393	140.984	-149.699	15.1578	110.742	-168.872	19.219	135.324	-149.53	46.1723	130.485	
14	0.116667	-124.361	52.1296	151.14	-89.8123	41.6781	147.408	-65.9296	32.1613	131.727	-60.5685	12.3312	112.485	-108.936	48.0254	76.8314	-89.5157	48.6208	62.2332	-66.9777	45.2471	48.0819	-117.289	29.1511	70.082	-97.9055	25.3068	49.0062	-71.7499	16.2845	30.003	-113.055	6.21617	75.8523	-83.8649	0.644066	67.8675	-58.763	2.90777	83.1342	-103.825	-13.9038	96.083	-81.9057	-9.61913	112.321	-90.8418	10.7717	141.672	-154.069	6.18779	112.94	-167.36	10.8582	137.061	-156.924	39.8692	126.124	
15	0.125	-135.049	56.123	146.702	-98.6822	50.8343	138.556	-74.8961	41.7847	119.491	-69.7435	21.6048	107.385	-123.37	53.9661	73.7177	-104.063	59.3414	56.9914	-81.8288	54.526	38.4825	-127.889	28.7603	67.4614	-108.418	32.3105	42.5566	-90.3417	29.0273	24.094	-120.715	7.88772	74.4521	-96.2976	8.66159	59.3871	-66.4161	10.4136	56.5898	-105.923	-7.59075	93.8514	-83.5835	4.72906	106.925	-92.1262	22.7185	133.653	-154.499	6.4704	111.008	-170.763	6.52046	137.57	-166.227	39.0932	121.318	
16	0.133333	-152.764	57.3111	139.978	-114.881	59.2942	123.901	-95.8627	50.6442	107.568	-90.1215	24.1498	93.5079	-145.269	47.4916	67.4753	-126.008	52.9166	45.6157	-112.336	54.2657	27.3965	-142.503	21.5864	64.1683	-128.268	23.0488	38.1258	-114.028	23.7109	15.6935	-130.085	8.17875	69.7721	-108.8	5.92453	51.2474	-84.1148	11.645	35.8929	-112.462	-2.62135	89.5194	-91.8955	12.208	98.7431	-100.74	28.4849	124.309	-163.136	-1.01956	114.25	-175.913	0.153666	136.034	-178.247	28.4396	118.347	
17	0.141667	-173.361	50.6089	128.097	-141.559	57.0691	113.046	-121.366	48.9807	92.7437	-110.078	23.5839	81.3523	-172.225	31.5983	59.5901	-156.551	33.7832	34.402	-146.42	34.7859	14.669	-162.665	4.75415	54.947	-153.78	5.92679	32.6904	-140.509	1.39971	4.11391	-145.495	-8.35446	65.7118	-130.546	-8.04324	47.1057	-113.487	1.24654	24.9477	-128.977	-9.95938	85.2174	-106.259	11.504	89.4172	-114.033	28.1821	110.903	-173.285	-12.0393	111.492	-181.767	-12.664	137.906	-192.728	11.9732	118.46	
18	0.15	-193.457	37.2413	119.174	-165.112	44.1691	101.806	-143.312	35.2968	76.8528	-133.854	11.1647	74.1263	-196.281	6.92332	57.0086	-189.108	8.56522	29.9965	-178.295	4.69958	7.15663	-186.549	-17.4443	57.3577	-177.269	-23.7987	28.6039	-170.814	-28.0342	7.34852	-165.487	-27.0152	66.7758	-150.07	-29.6807	42.8398	-136.822	-25.0876	17.511	-144.355	-24.1072	82.6903	-127.3	1.31417	78.0434	-132.699	22.1212	96.2096	-186.702	-25.295	115.061	-193.67	-24.446	143.3	-206.341	-3.35939	120.397	
19	0.158333	-203.311	31.3577	118.796	-176.681	41.523	94.5397	-159.344	30.37	73.3479	-146.54	6.03533	65.5766	-212.136	-3.77237	52.7663	-208.303	-1.57566	32.2089	-200.837	-5.92856	6.36666	-203.042	-26.5856	55.0614	-200.418	-28.8552	30.7079	-194.258	-38.7709	7.03776	-178.619	-36.3403	63.2887	-169.681	-36.9294	43.9221	-157.62	-37.1639	16.3793	-158.582	-32.7956	81.5541	-139.452	-9.96152	72.6951	-143.57	15.5748	92.158	-199.231	-32.143	113.63	-202.407	-23.3115	145.605	-222.138	-3.40122	120.925	
